<svg width="44" height="44" viewBox="0 0 44 44" fill="none" xmlns="http://www.w3.org/2000/svg">
<rect x="0.5" y="0.5" width="43" height="43" rx="7.5" fill="white"/>
<path fill-rule="evenodd" clip-rule="evenodd" d="M16.75 14C15.2312 14 14 15.2312 14 16.75V17.75V21V27.25C14 28.7688 15.2312 30 16.75 30H22.25C22.6642 30 23 29.6642 23 29.25C23 28.8358 22.6642 28.5 22.25 28.5H16.75C16.0596 28.5 15.5 27.9404 15.5 27.25V21V18.5H27.25C27.9404 18.5 28.5 19.0596 28.5 19.75V22.25C28.5 22.6642 28.8358 23 29.25 23C29.6642 23 30 22.6642 30 22.25V19.75C30 18.2312 28.7688 17 27.25 17H24.0816L23.227 15.4332C22.7451 14.5497 21.819 14 20.8127 14H16.75ZM22.3729 17L21.9101 16.1514L21.91 16.1514C21.6911 15.7499 21.2702 15.5 20.8127 15.5H16.75C16.0596 15.5 15.5 16.0596 15.5 16.75V17H22.3729ZM27 24C27.4142 24 27.75 24.3358 27.75 24.75V26.25H29.25C29.6642 26.25 30 26.5858 30 27C30 27.4142 29.6642 27.75 29.25 27.75H27.75V29.25C27.75 29.6642 27.4142 30 27 30C26.5858 30 26.25 29.6642 26.25 29.25V27.75H24.75C24.3358 27.75 24 27.4142 24 27C24 26.5858 24.3358 26.25 24.75 26.25H26.25V24.75C26.25 24.3358 26.5858 24 27 24Z" fill="black"/>
<rect x="0.5" y="0.5" width="43" height="43" rx="7.5" stroke="black"/>
</svg>
