<svg width="40" height="40" viewBox="0 0 40 40" fill="none" xmlns="http://www.w3.org/2000/svg">
<rect width="40" height="40" rx="20" fill="#F7F7F7"/>
<path fill-rule="evenodd" clip-rule="evenodd" d="M25.7803 15.2803C26.0732 14.9874 26.0732 14.5126 25.7803 14.2197C25.4874 13.9268 25.0126 13.9268 24.7197 14.2197L20 18.9393L15.2803 14.2197C14.9874 13.9268 14.5126 13.9268 14.2197 14.2197C13.9268 14.5126 13.9268 14.9874 14.2197 15.2803L18.9393 20L14.2197 24.7197C13.9268 25.0126 13.9268 25.4874 14.2197 25.7803C14.5126 26.0732 14.9874 26.0732 15.2803 25.7803L20 21.0607L24.7197 25.7803C25.0126 26.0732 25.4874 26.0732 25.7803 25.7803C26.0732 25.4874 26.0732 25.0126 25.7803 24.7197L21.0607 20L25.7803 15.2803Z" fill="black"/>
</svg>
